<svg width="17" height="16" viewBox="0 0 17 16" fill="none" xmlns="http://www.w3.org/2000/svg">
<path d="M6.33341 14.9993C6.7016 14.9993 7.00008 14.7009 7.00008 14.3327C7.00008 13.9645 6.7016 13.666 6.33341 13.666C5.96522 13.666 5.66675 13.9645 5.66675 14.3327C5.66675 14.7009 5.96522 14.9993 6.33341 14.9993Z" stroke="#F6F6F6" stroke-width="1.5" stroke-linecap="round" stroke-linejoin="round"/>
<path d="M13.6667 14.9993C14.0349 14.9993 14.3333 14.7009 14.3333 14.3327C14.3333 13.9645 14.0349 13.666 13.6667 13.666C13.2985 13.666 13 13.9645 13 14.3327C13 14.7009 13.2985 14.9993 13.6667 14.9993Z" stroke="#F6F6F6" stroke-width="1.5" stroke-linecap="round" stroke-linejoin="round"/>
<path d="M1 1H3.66667L5.45333 9.92667C5.5143 10.2336 5.68127 10.5093 5.92503 10.7055C6.16879 10.9018 6.4738 11.006 6.78667 11H13.2667C13.5795 11.006 13.8845 10.9018 14.1283 10.7055C14.3721 10.5093 14.539 10.2336 14.6 9.92667L15.6667 4.33333H4.33333" stroke="#F6F6F6" stroke-width="1.5" stroke-linecap="round" stroke-linejoin="round"/>
</svg>
