<svg xmlns="http://www.w3.org/2000/svg" id="Layer_1" data-name="Layer 1" viewBox="0 0 58.9 97.5"><defs><style>.cls-1{fill:#000001}</style></defs><path d="M16.5 56A29 29 0 0 0 28 58.8h1.5c4.8 0 9.5-1.2 13.8-3.4l1.3-.8c2.9-1.7 5.4-3.9 7.5-6.5l1-1.1A29.5 29.5 0 0 0 29.5 0H28A29.4 29.4 0 0 0 5.3 46.2c2-2.2 4.2-4 6.7-5.7a20.9 20.9 0 0 1 16.7-32h.8a20.8 20.8 0 0 1 0 41.6h-.7l-.8.1a18 18 0 0 0-11.5 5.6" class="cls-1"/><path d="M29.5 38.5c-4.8 0-9.6 1.2-13.9 3.5l-.6.3-.7.4a29.7 29.7 0 0 0-7.5 6.5l-.4.5-.6.7a29.5 29.5 0 1 0 47.8.8c-2 2.1-4.2 4-6.6 5.6a20.8 20.8 0 1 1-34.1-1.3l.4-.6a20.8 20.8 0 0 1 16-7.7h.1c5 0 9.7-2 13-5.6-4-2-8.4-3-13-3" class="cls-1"/></svg>
